<svg xmlns="http://www.w3.org/2000/svg" width="227" height="58.7" viewBox="0 0 227 50.7">
         <path fill="#F9D308" d="M17.4.5L0 48.3h49.7L67.1.5z"></path>
         <path fill="#16A0DB" d="M210 28.9V.1h17v4.7h-11v7.1h10.5v4.6H216v7.7h11v4.7zM83.9 4.8H81v9.9c.3.1.6.1 1.1.2.5 0 1 .1 1.4.1 1.9 0 3.4-.4 4.4-1.3 1-.9 1.6-2.2 1.6-3.9 0-1.6-.5-2.8-1.5-3.7-.9-.9-2.3-1.3-4.1-1.3m-.4 14.7h-2.6V29h-6V.1l9.5-.1c3.7 0 6.5.8 8.5 2.4 2 1.6 3 3.9 3 6.8 0 3.1-1.1 5.6-3.4 7.5-2.3 1.9-5.3 2.8-9 2.8m31.2-14.9h-2.5V13l2.8.1c1.6 0 2.9-.4 3.8-1.2.9-.8 1.4-1.9 1.4-3.3 0-1.3-.5-2.3-1.4-3-1.1-.7-2.4-1-4.1-1m6 24.4l-8.3-11.9h-.3V29h-6V.2h5.1c1.5 0 3-.1 4.3-.1 3.5 0 6.2.7 8 2 1.9 1.4 2.8 3.3 2.8 6 0 2.3-.7 4.1-2.2 5.5-1.4 1.4-3.3 2.3-5.7 2.7l2.3 3.1 7.2 9.6h-7.2zm72.1 0l-2.2-15.1-.8-6.6c-.2.7-.4 1.6-.7 2.7-.3 1.1-.5 2-.8 2.7L182.8 29h-6.3l-4.9-15.1c-.4-1.2-.8-2.4-1.1-3.4-.3-1-.5-2.1-.8-3.2 0 1-.1 2.1-.3 3.3-.2 1.2-.3 2.5-.5 3.7L167.1 29h-5.9L165.6.1h7.5l5.4 16.2c.2.6.4 1.5.8 2.7.3 1.2.5 2.1.7 2.7.3-1 .5-1.9.7-2.6.2-.7.5-1.6.9-2.7L187 .1h7.7L199 29h-6.2zM142.3.1h-.1V5h.1v24h5.9V.1zM75.2 45.7c.6.4 1.5.7 2.4.7 1.4 0 2.2-.7 2.2-1.8 0-1-.6-1.5-2-2.1-1.7-.6-2.8-1.5-2.8-2.9 0-1.6 1.3-2.8 3.4-2.8 1.1 0 1.8.2 2.3.5l-.4 1.1c-.3-.2-1-.5-2-.5-1.4 0-2 .8-2 1.6 0 1 .6 1.4 2.1 2 1.8.7 2.7 1.5 2.7 3.1s-1.2 3-3.6 3c-1 0-2.1-.3-2.7-.7l.4-1.2zm12.5-2.8c0-.9-.4-2.2-1.9-2.2-1.4 0-2 1.3-2.1 2.2h4zm-3.9.9c0 1.8 1.2 2.6 2.6 2.6 1 0 1.6-.2 2.1-.4l.2 1c-.5.2-1.3.5-2.5.5-2.3 0-3.7-1.5-3.7-3.8s1.3-4 3.5-4c2.4 0 3.1 2.1 3.1 3.5v.6h-5.3zM96 47c-.4.2-1.1.4-2.1.4-2.3 0-3.7-1.5-3.7-3.8s1.6-4 4-4c.8 0 1.5.2 1.9.4l-.3 1c-.3-.2-.8-.4-1.6-.4-1.7 0-2.6 1.3-2.6 2.8 0 1.7 1.1 2.8 2.6 2.8.8 0 1.3-.2 1.7-.4L96 47zm7.9-1.7c0 .8 0 1.4.1 2h-1.2l-.1-1.2c-.4.6-1.1 1.4-2.5 1.4-1.2 0-2.6-.6-2.6-3.3v-4.4H99V44c0 1.4.4 2.4 1.7 2.4.9 0 1.5-.6 1.8-1.2.1-.2.1-.4.1-.7v-4.6h1.4v5.4zm2.2-3.1c0-.9 0-1.6-.1-2.3h1.2v1.5h.1c.3-1 1.2-1.6 2.1-1.6h.4V41h-.5c-1 0-1.6.7-1.8 1.7 0 .2-.1.4-.1.6v4h-1.3v-5.1zm9.6.7c0-.9-.4-2.2-1.9-2.2-1.4 0-2 1.3-2.1 2.2h4zm-3.9.9c0 1.8 1.2 2.6 2.6 2.6 1 0 1.6-.2 2.1-.4l.2 1c-.5.2-1.3.5-2.5.5-2.3 0-3.7-1.5-3.7-3.8s1.3-4 3.5-4c2.4 0 3.1 2.1 3.1 3.5v.6h-5.3zm11.8-6.1v2.1h1.9v1h-1.9v4c0 .9.3 1.4 1 1.4.4 0 .6 0 .8-.1l.1 1c-.3.1-.7.2-1.2.2-.6 0-1.1-.2-1.5-.6-.4-.4-.5-1.1-.5-1.9v-4.1h-1.2v-1h1.2v-1.8l1.3-.2zm4.2 5.9c0 1.6.9 2.9 2.3 2.9 1.3 0 2.3-1.2 2.3-2.9 0-1.3-.6-2.9-2.2-2.9-1.7 0-2.4 1.5-2.4 2.9m6-.1c0 2.8-1.9 4-3.7 4-2 0-3.6-1.5-3.6-3.8 0-2.5 1.6-4 3.7-4s3.6 1.5 3.6 3.8m1.7-1.6c0-.8 0-1.4-.1-2h1.2l.1 1.2c.4-.7 1.1-1.4 2.3-1.4 1 0 1.8.6 2.1 1.5.2-.4.5-.7.8-1 .4-.3.9-.5 1.6-.5 1 0 2.4.6 2.4 3.2v4.4h-1.3v-4.2c0-1.4-.5-2.3-1.6-2.3-.8 0-1.4.6-1.6 1.2-.1.2-.1.4-.1.7v4.6H140v-4.5c0-1.2-.5-2.1-1.6-2.1-.8 0-1.5.7-1.7 1.4-.1.2-.1.4-.1.7v4.5h-1.3v-5.4zm13.7 1.7c0 1.6.9 2.9 2.3 2.9 1.3 0 2.3-1.2 2.3-2.9 0-1.3-.6-2.9-2.2-2.9-1.7 0-2.4 1.5-2.4 2.9m5.9-.1c0 2.8-1.9 4-3.7 4-2 0-3.6-1.5-3.6-3.8 0-2.5 1.6-4 3.7-4s3.6 1.5 3.6 3.8m1.7-1.3c0-.9 0-1.6-.1-2.3h1.2v1.5h.1c.3-1 1.2-1.6 2.1-1.6h.4V41h-.5c-1 0-1.6.7-1.8 1.7 0 .2-.1.4-.1.6v4h-1.3v-5.1zm5.1 0c0-.9 0-1.6-.1-2.3h1.2v1.5h.1c.3-1 1.2-1.6 2.1-1.6h.4V41h-.5c-1 0-1.6.7-1.8 1.7 0 .2-.1.4-.1.6v4h-1.3v-5.1zm5.7 1.4c0 1.6.9 2.9 2.3 2.9 1.3 0 2.3-1.2 2.3-2.9 0-1.3-.6-2.9-2.2-2.9-1.7 0-2.4 1.5-2.4 2.9m5.9-.1c0 2.8-1.9 4-3.7 4-2 0-3.6-1.5-3.6-3.8 0-2.5 1.6-4 3.7-4 2.2 0 3.6 1.5 3.6 3.8m2.2-3.6l1 3.8.6 2.4c.2-.8.4-1.6.7-2.4l1.2-3.8h1.1l1.2 3.7c.3.9.5 1.7.7 2.4.1-.8.3-1.5.6-2.4l1.1-3.7h1.3l-2.4 7.5h-1.2l-1.1-3.6c-.3-.8-.5-1.6-.7-2.5-.2.9-.4 1.7-.7 2.5l-1.2 3.5h-1.2l-2.3-7.5h1.3zm15.7-2.2v2.1h1.9v1h-1.9v4c0 .9.3 1.4 1 1.4.4 0 .6 0 .8-.1l.1 1c-.3.1-.7.2-1.2.2-.6 0-1.1-.2-1.5-.6-.4-.4-.5-1.1-.5-1.9v-4.1h-1.2v-1h1.2v-1.8l1.3-.2zm4.2 5.9c0 1.6.9 2.9 2.3 2.9 1.3 0 2.3-1.2 2.3-2.9 0-1.3-.6-2.9-2.2-2.9s-2.4 1.5-2.4 2.9m5.9-.1c0 2.8-1.9 4-3.7 4-2 0-3.6-1.5-3.6-3.8 0-2.5 1.6-4 3.7-4 2.2 0 3.6 1.5 3.6 3.8m6.8-.6c0-.2 0-.4-.1-.6-.2-.9-.9-1.6-2-1.6-1.4 0-2.2 1.2-2.2 2.9 0 1.5.7 2.8 2.2 2.8.9 0 1.7-.6 2-1.6 0-.2.1-.4.1-.6v-1.3zm1.4-6.5v9c0 .7 0 1.4.1 1.9h-1.2l-.1-1.3c-.4.8-1.3 1.5-2.5 1.5-1.8 0-3.2-1.5-3.2-3.8 0-2.5 1.5-4 3.3-4 1.1 0 1.9.5 2.3 1.1v-4.5h1.3zm6.2 7.1c-1.5 0-3.2.2-3.2 1.7 0 .9.6 1.3 1.3 1.3 1 0 1.6-.6 1.8-1.2 0-.1.1-.3.1-.4v-1.4zm.2 3.8l-.1-.9c-.4.6-1.2 1.1-2.3 1.1-1.5 0-2.3-1.1-2.3-2.1 0-1.8 1.6-2.8 4.5-2.8v-.2c0-.6-.2-1.7-1.7-1.7-.7 0-1.4.2-1.9.6l-.3-.9c.6-.4 1.5-.7 2.5-.7 2.3 0 2.8 1.6 2.8 3.1v2.8c0 .6 0 1.3.1 1.8h-1.3zm3.6-7.4l1.6 4.4c.2.5.4 1.1.5 1.5.1-.4.3-1 .5-1.6l1.5-4.4h1.4l-2 5.3c-1 2.6-1.6 3.9-2.6 4.7-.7.6-1.3.8-1.7.9l-.3-1.1c.3-.1.8-.3 1.2-.7.4-.3.8-.8 1.1-1.5.1-.1.1-.2.1-.3 0-.1 0-.2-.1-.4l-2.8-6.9h1.6z"></path>
         <path fill="#FFF" d="M23.7 40L35.1 9.5h-8.4L15.3 40zM42.4 9.5l-8 21.6h8.4l8-21.6z"></path>
         <path fill="#FFF" d="M34.4 31.1l8-21.6h8.4l-8 21.6zm.7-21.6L23.7 40h-8.4L26.7 9.5z"></path>
     </svg>